# xmcd
#
# Track frame offsets:
#	150
#	20556
#	55349
#	95594
#	150082
#	199230
#	253189
#
# Disc length: 4081 seconds
#
# Revision: 0
# Processed by: cddbd v1.5.2PL0 Copyright (c) Steve Scherf et al.
# Submitted via: audiograbber 1.83.01
#
DISCID=560fef07
DTITLE=Grateful Dead - 93-09-30 Boston Garden, Boston MA
DYEAR=1900
DGENRE=
TTITLE0=Lucy In The Sky With Diamond
TTITLE1=Wave To The Wind
TTITLE2=Crazy Fingers
TTITLE3=Estimated Prophet
TTITLE4=He's Gone
TTITLE5=Drums
TTITLE6=Space
EXTD=
EXTT0=
EXTT1=
EXTT2=
EXTT3=
EXTT4=
EXTT5=
EXTT6=
PLAYORDER=
